_Griffith_Gothic-Condensed_Ultra_WebTT.ufo
<glyph name="exclam" format="1">
  <advance width="520.192"/>
  <unicode hex="0021"/>
  <outline>
    <contour>
      <point x="260" y="375" type="qcurve" smooth="yes"/>
      <point x="342.835820896" y="375.0"/>
      <point x="455.0" y="262.835820896"/>
      <point x="455" y="180" type="qcurve" smooth="yes"/>
      <point x="455.0" y="97.9104477612"/>
      <point x="342.835820896" y="-14.0"/>
      <point x="260" y="-14" type="qcurve" smooth="yes"/>
      <point x="177.910447761" y="-14.0"/>
      <point x="66.0" y="97.9104477612"/>
      <point x="66" y="180" type="qcurve" smooth="yes"/>
      <point x="66.0" y="262.835820896"/>
      <point x="177.910447761" y="375.0"/>
    </contour>
    <contour>
      <point x="41" y="1475" type="line"/>
      <point x="479" y="1475" type="line"/>
      <point x="362" y="477" type="line"/>
      <point x="158" y="477" type="line"/>
    </contour>
  </outline>
</glyph>
<glyph name="numbersign" format="1">
  <advance width="1101.824"/>
  <unicode hex="0023"/>
  <outline>
    <contour>
      <point x="1071" y="1219" type="line"/>
      <point x="1071" y="881" type="line"/>
      <point x="860" y="881" type="line"/>
      <point x="823" y="614" type="line"/>
      <point x="1014" y="614" type="line"/>
      <point x="1014" y="276" type="line"/>
      <point x="776" y="276" type="line"/>
      <point x="739" y="0" type="line"/>
      <point x="590" y="0" type="line"/>
      <point x="627" y="276" type="line"/>
      <point x="365" y="276" type="line"/>
      <point x="328" y="0" type="line"/>
      <point x="176" y="0" type="line"/>
      <point x="215" y="276" type="line"/>
      <point x="47" y="276" type="line"/>
      <point x="47" y="614" type="line"/>
      <point x="260" y="614" type="line"/>
      <point x="297" y="881" type="line"/>
      <point x="104" y="881" type="line"/>
      <point x="104" y="1219" type="line"/>
      <point x="344" y="1219" type="line"/>
      <point x="379" y="1475" type="line"/>
      <point x="528" y="1475" type="line"/>
      <point x="494" y="1219" type="line"/>
      <point x="756" y="1219" type="line"/>
      <point x="791" y="1475" type="line"/>
      <point x="942" y="1475" type="line"/>
      <point x="907" y="1219" type="line"/>
    </contour>
    <contour>
      <point x="680" y="608" type="line"/>
      <point x="717" y="887" type="line"/>
      <point x="442" y="887" type="line"/>
      <point x="403" y="608" type="line"/>
    </contour>
  </outline>
</glyph>
<glyph name="percent" format="1">
  <advance width="1576.96"/>
  <unicode hex="0025"/>
  <outline>
    <contour>
      <point x="377" y="1489" type="qcurve" smooth="yes"/>
      <point x="532.970149254" y="1489.0"/>
      <point x="731.0" y="1279.25373134"/>
      <point x="731" y="1030" type="qcurve" smooth="yes"/>
      <point x="731.0" y="793.432835821"/>
      <point x="529.47761194" y="573.0"/>
      <point x="375" y="573" type="qcurve" smooth="yes"/>
      <point x="219.029850746" y="573.0"/>
      <point x="27.0" y="787.462686567"/>
      <point x="27" y="1030" type="qcurve" smooth="yes"/>
      <point x="27.0" y="1273.28358209"/>
      <point x="222.52238806" y="1489.0"/>
    </contour>
    <contour>
      <point x="375" y="821" type="qcurve" smooth="yes"/>
      <point x="423.507462687" y="821.0"/>
      <point x="453.0" y="924.268656716"/>
      <point x="453" y="1028" type="qcurve" smooth="yes"/>
      <point x="453.0" y="1138.44776119"/>
      <point x="423.507462687" y="1235.0"/>
      <point x="375" y="1235" type="qcurve" smooth="yes"/>
      <point x="327.23880597" y="1235.0"/>
      <point x="305.0" y="1137.97014925"/>
      <point x="305" y="1032" type="qcurve" smooth="yes"/>
      <point x="305.0" y="928.268656716"/>
      <point x="327.23880597" y="821.0"/>
    </contour>
    <contour>
      <point x="1196" y="901" type="qcurve" smooth="yes"/>
      <point x="1351.97014925" y="901.0"/>
      <point x="1550.0" y="693.537313433"/>
      <point x="1550" y="451" type="qcurve" smooth="yes"/>
      <point x="1550.0" y="207.71641791"/>
      <point x="1348.47761194" y="-14.0"/>
      <point x="1194" y="-14" type="qcurve" smooth="yes"/>
      <point x="1038.02985075" y="-14.0"/>
      <point x="846.0" y="201.746268657"/>
      <point x="846" y="451" type="qcurve" smooth="yes"/>
      <point x="846.0" y="687.567164179"/>
      <point x="1041.52238806" y="901.0"/>
    </contour>
    <contour>
      <point x="1194" y="240" type="qcurve" smooth="yes"/>
      <point x="1243.25373134" y="240.0"/>
      <point x="1272.0" y="343.029850746"/>
      <point x="1272" y="449" type="qcurve" smooth="yes"/>
      <point x="1272.0" y="557.208955224"/>
      <point x="1243.25373134" y="653.0"/>
      <point x="1194" y="653" type="qcurve" smooth="yes"/>
      <point x="1146.23880597" y="653.0"/>
      <point x="1124.0" y="556.731343284"/>
      <point x="1124" y="453" type="qcurve" smooth="yes"/>
      <point x="1124.0" y="347.029850746"/>
      <point x="1146.23880597" y="240.0"/>
    </contour>
    <contour>
      <point x="1022" y="1475" type="line"/>
      <point x="1321" y="1473" type="line"/>
      <point x="852" y="705" type="line"/>
      <point x="557" y="6" type="line"/>
      <point x="256" y="6" type="line"/>
      <point x="725" y="776" type="line"/>
    </contour>
  </outline>
</glyph>
<glyph name="ampersand" format="1">
  <advance width="1220.608"/>
  <unicode hex="0026"/>
  <outline>
    <contour>
      <point x="1200" y="272" type="qcurve"/>
      <point x="1200" y="2" type="line"/>
      <point x="1164.92537313" y="-5.46268656716"/>
      <point x="1108.07462687" y="-14.0"/>
      <point x="1073" y="-14" type="qcurve" smooth="yes"/>
      <point x="985.686567164" y="-14.0"/>
      <point x="847.641791045" y="27.8208955224"/>
      <point x="776" y="92" type="qcurve"/>
      <point x="702.865671642" y="35.2835820896"/>
      <point x="544.074626866" y="-20.0"/>
      <point x="459" y="-20" type="qcurve" smooth="yes"/>
      <point x="250.791044776" y="-20.0"/>
      <point x="16.0" y="189.0"/>
      <point x="16" y="389" type="qcurve" smooth="yes"/>
      <point x="16.0" y="527.805970149"/>
      <point x="135.134328358" y="730.701492537"/>
      <point x="262" y="821" type="qcurve"/>
      <point x="208.268656716" y="917.268656716"/>
      <point x="164.0" y="1069.20895522"/>
      <point x="164" y="1161" type="qcurve" smooth="yes"/>
      <point x="164.0" y="1311.0"/>
      <point x="353.134328358" y="1499.0"/>
      <point x="530" y="1499" type="qcurve" smooth="yes"/>
      <point x="694.179104478" y="1499.0"/>
      <point x="854.0" y="1315.91044776"/>
      <point x="854" y="1198" type="qcurve" smooth="yes"/>
      <point x="854.0" y="1071.13432836"/>
      <point x="742.223880597" y="892.850746269"/>
      <point x="637" y="813" type="qcurve"/>
      <point x="682.52238806" y="742.850746269"/>
      <point x="764.432835821" y="622.731343284"/>
      <point x="801" y="569" type="qcurve"/>
      <point x="830.104477612" y="639.895522388"/>
      <point x="891.910447761" y="813.52238806"/>
      <point x="924" y="918" type="qcurve"/>
      <point x="1190" y="791" type="line"/>
      <point x="1142.23880597" y="649.955223881"/>
      <point x="1037.71641791" y="420.298507463"/>
      <point x="981" y="330" type="qcurve"/>
      <point x="1017.56716418" y="289.701492537"/>
      <point x="1076.3880597" y="258.0"/>
      <point x="1104" y="258" type="qcurve" smooth="yes"/>
      <point x="1134.59701493" y="258.0"/>
      <point x="1173.88059701" y="264.537313433"/>
    </contour>
    <contour>
      <point x="532" y="264" type="qcurve" smooth="yes"/>
      <point x="552.149253731" y="264.0"/>
      <point x="592.089552239" y="276.313432836"/>
      <point x="610" y="289" type="qcurve"/>
      <point x="564.47761194" y="351.686567164"/>
      <point x="454.194029851" y="509.731343284"/>
      <point x="393" y="606" type="qcurve"/>
      <point x="376.582089552" y="572.417910448"/>
      <point x="360.0" y="501.059701493"/>
      <point x="360" y="463" type="qcurve" smooth="yes"/>
      <point x="360.0" y="377.179104478"/>
      <point x="443.940298507" y="264.0"/>
    </contour>
    <contour>
      <point x="508" y="977" type="qcurve"/>
      <point x="553.52238806" y="1029.23880597"/>
      <point x="584.0" y="1122.46268657"/>
      <point x="584" y="1165" type="qcurve" smooth="yes"/>
      <point x="584.0" y="1223.20895522"/>
      <point x="547.611940299" y="1288.0"/>
      <point x="520" y="1288" type="qcurve" smooth="yes"/>
      <point x="487.910447761" y="1288.0"/>
      <point x="451.0" y="1235.46268657"/>
      <point x="451" y="1178" type="qcurve" smooth="yes"/>
      <point x="451.0" y="1134.71641791"/>
      <point x="469.940298507" y="1048.64179104"/>
    </contour>
  </outline>
</glyph>
<glyph name="plus" format="1">
  <advance width="980.992"/>
  <unicode hex="002B"/>
  <outline>
    <contour>
      <point x="936" y="879" type="line"/>
      <point x="936" y="575" type="line"/>
      <point x="653" y="575" type="line"/>
      <point x="653" y="180" type="line"/>
      <point x="328" y="180" type="line"/>
      <point x="328" y="575" type="line"/>
      <point x="45" y="575" type="line"/>
      <point x="45" y="879" type="line"/>
      <point x="328" y="879" type="line"/>
      <point x="328" y="1274" type="line"/>
      <point x="653" y="1274" type="line"/>
      <point x="653" y="879" type="line"/>
    </contour>
  </outline>
</glyph>
<glyph name="comma" format="1">
  <advance width="487.424"/>
  <unicode hex="002C"/>
  <outline>
    <contour>
      <point x="94" y="365" type="line"/>
      <point x="457" y="365" type="line"/>
      <point x="219" y="-231" type="line"/>
      <point x="49" y="-231" type="line"/>
    </contour>
  </outline>
</glyph>
<glyph name="period" format="1">
  <advance width="487.424"/>
  <unicode hex="002E"/>
  <outline>
    <contour>
      <point x="244" y="375" type="qcurve" smooth="yes"/>
      <point x="326.089552239" y="375.0"/>
      <point x="438.0" y="262.835820896"/>
      <point x="438" y="180" type="qcurve" smooth="yes"/>
      <point x="438.0" y="97.9104477612"/>
      <point x="326.089552239" y="-14.0"/>
      <point x="244" y="-14" type="qcurve" smooth="yes"/>
      <point x="161.164179104" y="-14.0"/>
      <point x="49.0" y="97.9104477612"/>
      <point x="49" y="180" type="qcurve" smooth="yes"/>
      <point x="49.0" y="262.835820896"/>
      <point x="161.164179104" y="375.0"/>
    </contour>
  </outline>
</glyph>
<glyph name="zero" format="1">
  <advance width="1042.432"/>
  <unicode hex="0030"/>
  <outline>
    <contour>
      <point x="1006" y="909" type="qcurve" smooth="yes"/>
      <point x="1006" y="565" type="line" smooth="yes"/>
      <point x="1006.0" y="251.567164179"/>
      <point x="735.671641791" y="-25.0"/>
      <point x="520" y="-25" type="qcurve" smooth="yes"/>
      <point x="304.328358209" y="-25.0"/>
      <point x="37.0" y="251.567164179"/>
      <point x="37" y="565" type="qcurve" smooth="yes"/>
      <point x="37" y="909" type="line" smooth="yes"/>
      <point x="37.0" y="1222.43283582"/>
      <point x="304.328358209" y="1499.0"/>
      <point x="520" y="1499" type="qcurve" smooth="yes"/>
      <point x="735.671641791" y="1499.0"/>
      <point x="1006.0" y="1222.43283582"/>
    </contour>
    <contour>
      <point x="520" y="274" type="qcurve" smooth="yes"/>
      <point x="581.194029851" y="274.0"/>
      <point x="618.0" y="395.641791045"/>
      <point x="618" y="524" type="qcurve" smooth="yes"/>
      <point x="618" y="950" type="line" smooth="yes"/>
      <point x="618.0" y="1078.35820896"/>
      <point x="581.194029851" y="1202.0"/>
      <point x="520" y="1202" type="qcurve" smooth="yes"/>
      <point x="460.298507463" y="1202.0"/>
      <point x="422.0" y="1078.35820896"/>
      <point x="422" y="950" type="qcurve" smooth="yes"/>
      <point x="422" y="524" type="line" smooth="yes"/>
      <point x="422.0" y="395.641791045"/>
      <point x="460.298507463" y="274.0"/>
    </contour>
  </outline>
</glyph>
<glyph name="one" format="1">
  <advance width="716.8"/>
  <unicode hex="0031"/>
  <outline>
    <contour>
      <point x="698" y="246" type="line"/>
      <point x="698" y="0" type="line"/>
      <point x="49" y="0" type="line"/>
      <point x="49" y="246" type="line"/>
      <point x="195" y="246" type="line"/>
      <point x="195" y="1229" type="line"/>
      <point x="29" y="1229" type="line"/>
      <point x="29" y="1475" type="line"/>
      <point x="569" y="1475" type="line"/>
      <point x="569" y="246" type="line"/>
    </contour>
  </outline>
</glyph>
<glyph name="two" format="1">
  <advance width="948.224"/>
  <unicode hex="0032"/>
  <outline>
    <contour>
      <point x="920" y="305" type="line"/>
      <point x="920" y="0" type="line"/>
      <point x="29" y="0" type="line"/>
      <point x="29" y="246" type="line"/>
      <point x="68.552238806" y="384.805970149"/>
      <point x="211.059701493" y="596.507462687"/>
      <point x="373" y="748" type="qcurve" smooth="yes"/>
      <point x="470.76119403" y="839.044776119"/>
      <point x="543.0" y="975.208955224"/>
      <point x="543" y="1067" type="qcurve" smooth="yes"/>
      <point x="543.0" y="1131.17910448"/>
      <point x="505.567164179" y="1190.0"/>
      <point x="469" y="1190" type="qcurve" smooth="yes"/>
      <point x="426.462686567" y="1190.0"/>
      <point x="362.626865672" y="1087.01492537"/>
      <point x="338" y="940" type="qcurve"/>
      <point x="12" y="1044" type="line"/>
      <point x="64.2388059701" y="1301.46268657"/>
      <point x="293.417910448" y="1499.0"/>
      <point x="477" y="1499" type="qcurve" smooth="yes"/>
      <point x="697.149253731" y="1499.0"/>
      <point x="915.0" y="1264.01492537"/>
      <point x="915" y="1067" type="qcurve" smooth="yes"/>
      <point x="915.0" y="871.47761194"/>
      <point x="725.462686567" y="630.791044776"/>
      <point x="618" y="539" type="qcurve" smooth="yes"/>
      <point x="532.925373134" y="466.611940299"/>
      <point x="441.134328358" y="352.76119403"/>
      <point x="418" y="305" type="qcurve"/>
    </contour>
  </outline>
</glyph>
<glyph name="five" format="1">
  <advance width="989.184"/>
  <unicode hex="0035"/>
  <outline>
    <contour>
      <point x="958" y="553" type="qcurve" smooth="yes"/>
      <point x="958" y="514" type="line" smooth="yes"/>
      <point x="958.0" y="213.253731343"/>
      <point x="678.104477612" y="-20.0"/>
      <point x="449" y="-20" type="qcurve" smooth="yes"/>
      <point x="319.895522388" y="-20.0"/>
      <point x="129.402985075" y="33.3134328358"/>
      <point x="10" y="96" type="qcurve"/>
      <point x="137" y="385" type="line"/>
      <point x="228.791044776" y="334.253731343"/>
      <point x="348.328358209" y="295.0"/>
      <point x="414" y="295" type="qcurve" smooth="yes"/>
      <point x="494.597014925" y="295.0"/>
      <point x="567.0" y="392.089552239"/>
      <point x="567" y="510" type="qcurve" smooth="yes"/>
      <point x="567" y="524" type="line" smooth="yes"/>
      <point x="567.0" y="634.447761194"/>
      <point x="520.253731343" y="723.0"/>
      <point x="471" y="723" type="qcurve" smooth="yes"/>
      <point x="425.47761194" y="723.0"/>
      <point x="354.417910448" y="668.611940299"/>
      <point x="338" y="641" type="qcurve"/>
      <point x="82" y="641" type="line"/>
      <point x="127" y="1475" type="line"/>
      <point x="891" y="1475" type="line"/>
      <point x="891" y="1147" type="line"/>
      <point x="389" y="1147" type="line"/>
      <point x="373" y="889" type="line"/>
      <point x="379" y="889" type="line"/>
      <point x="402.134328358" y="927.059701493"/>
      <point x="515.671641791" y="997.0"/>
      <point x="600" y="997" type="qcurve" smooth="yes"/>
      <point x="760.447761194" y="997.0"/>
      <point x="958.0" y="792.552238806"/>
    </contour>
  </outline>
</glyph>
<glyph name="six" format="1">
  <advance width="1040.384"/>
  <unicode hex="0036"/>
  <outline>
    <contour>
      <point x="647" y="985" type="qcurve" smooth="yes"/>
      <point x="799.985074627" y="985.0"/>
      <point x="1010.0" y="756.268656716"/>
      <point x="1010" y="510" type="qcurve" smooth="yes"/>
      <point x="1010.0" y="242.835820896"/>
      <point x="750.567164179" y="-25.0"/>
      <point x="514" y="-25" type="qcurve" smooth="yes"/>
      <point x="281.910447761" y="-25.0"/>
      <point x="35.0" y="252.731343284"/>
      <point x="35" y="549" type="qcurve" smooth="yes"/>
      <point x="35.0" y="845.268656716"/>
      <point x="258.149253731" y="1283.95522388"/>
      <point x="438" y="1475" type="qcurve"/>
      <point x="920" y="1475" type="line"/>
      <point x="722.23880597" y="1317.53731343"/>
      <point x="468.537313433" y="1002.1641791"/>
      <point x="426" y="885" type="qcurve"/>
      <point x="432" y="885" type="line"/>
      <point x="455.134328358" y="912.611940299"/>
      <point x="559.686567164" y="985.0"/>
    </contour>
    <contour>
      <point x="522" y="250" type="qcurve" smooth="yes"/>
      <point x="595.880597015" y="250.0"/>
      <point x="627.0" y="383.746268657"/>
      <point x="627" y="483" type="qcurve" smooth="yes"/>
      <point x="627.0" y="580.76119403"/>
      <point x="595.880597015" y="713.0"/>
      <point x="522" y="713" type="qcurve" smooth="yes"/>
      <point x="448.865671642" y="713.0"/>
      <point x="420.0" y="579.268656716"/>
      <point x="420" y="483" type="qcurve" smooth="yes"/>
      <point x="420.0" y="380.76119403"/>
      <point x="448.865671642" y="250.0"/>
    </contour>
  </outline>
</glyph>
<glyph name="nine" format="1">
  <advance width="1040.384"/>
  <unicode hex="0039"/>
  <outline>
    <contour>
      <point x="526" y="1499" type="qcurve" smooth="yes"/>
      <point x="758.835820896" y="1499.0"/>
      <point x="1006.0" y="1222.26865672"/>
      <point x="1006" y="926" type="qcurve" smooth="yes"/>
      <point x="1006.0" y="628.985074627"/>
      <point x="782.597014925" y="191.044776119"/>
      <point x="602" y="0" type="qcurve"/>
      <point x="121" y="0" type="line"/>
      <point x="318.014925373" y="157.462686567"/>
      <point x="571.462686567" y="472.089552239"/>
      <point x="614" y="590" type="qcurve"/>
      <point x="608" y="590" type="line"/>
      <point x="585.611940299" y="562.388059701"/>
      <point x="480.313432836" y="489.0"/>
      <point x="393" y="489" type="qcurve" smooth="yes"/>
      <point x="240.014925373" y="489.0"/>
      <point x="31.0" y="718.731343284"/>
      <point x="31" y="965" type="qcurve" smooth="yes"/>
      <point x="31.0" y="1232.1641791"/>
      <point x="289.432835821" y="1499.0"/>
    </contour>
    <contour>
      <point x="518" y="762" type="qcurve" smooth="yes"/>
      <point x="591.134328358" y="762.0"/>
      <point x="621.0" y="894.731343284"/>
      <point x="621" y="991" type="qcurve" smooth="yes"/>
      <point x="621.0" y="1093.23880597"/>
      <point x="591.134328358" y="1225.0"/>
      <point x="518" y="1225" type="qcurve" smooth="yes"/>
      <point x="444.865671642" y="1225.0"/>
      <point x="414.0" y="1090.25373134"/>
      <point x="414" y="991" type="qcurve" smooth="yes"/>
      <point x="414.0" y="893.23880597"/>
      <point x="444.865671642" y="762.0"/>
    </contour>
  </outline>
</glyph>
<glyph name="colon" format="1">
  <advance width="507.904"/>
  <unicode hex="003A"/>
  <outline>
    <contour>
      <point x="254" y="375" type="qcurve" smooth="yes"/>
      <point x="336.835820896" y="375.0"/>
      <point x="449.0" y="262.835820896"/>
      <point x="449" y="180" type="qcurve" smooth="yes"/>
      <point x="449.0" y="97.9104477612"/>
      <point x="336.835820896" y="-14.0"/>
      <point x="254" y="-14" type="qcurve" smooth="yes"/>
      <point x="171.164179104" y="-14.0"/>
      <point x="59.0" y="97.9104477612"/>
      <point x="59" y="180" type="qcurve" smooth="yes"/>
      <point x="59.0" y="262.835820896"/>
      <point x="171.164179104" y="375.0"/>
    </contour>
    <contour>
      <point x="254" y="1124" type="qcurve" smooth="yes"/>
      <point x="336.835820896" y="1124.0"/>
      <point x="449.0" y="1012.08955224"/>
      <point x="449" y="930" type="qcurve" smooth="yes"/>
      <point x="449.0" y="847.164179104"/>
      <point x="336.835820896" y="735.0"/>
      <point x="254" y="735" type="qcurve" smooth="yes"/>
      <point x="171.164179104" y="735.0"/>
      <point x="59.0" y="847.164179104"/>
      <point x="59" y="930" type="qcurve" smooth="yes"/>
      <point x="59.0" y="1012.08955224"/>
      <point x="171.164179104" y="1124.0"/>
    </contour>
  </outline>
</glyph>
<glyph name="less" format="1">
  <advance width="978.944"/>
  <unicode hex="003C"/>
  <outline>
    <contour>
      <point x="924" y="477" type="line"/>
      <point x="924" y="115" type="line"/>
      <point x="49" y="557" type="line"/>
      <point x="49" y="885" type="line"/>
      <point x="924" y="1327" type="line"/>
      <point x="924" y="965" type="line"/>
      <point x="373" y="721" type="line"/>
    </contour>
  </outline>
</glyph>
<glyph name="at" format="1">
  <advance width="1601.536"/>
  <unicode hex="0040"/>
  <outline>
    <contour>
      <point x="825" y="1499" type="qcurve" smooth="yes"/>
      <point x="1117.53731343" y="1499.0"/>
      <point x="1513.0" y="1102.11940299"/>
      <point x="1513" y="676" type="qcurve" smooth="yes"/>
      <point x="1513.0" y="326.0"/>
      <point x="1273.43283582" y="43.0"/>
      <point x="1110" y="43" type="qcurve" smooth="yes"/>
      <point x="992.089552239" y="43.0"/>
      <point x="823.507462687" y="154.835820896"/>
      <point x="825" y="272" type="qcurve"/>
      <point x="817" y="272" type="line"/>
      <point x="774.462686567" y="168.268656716"/>
      <point x="632.76119403" y="43.0"/>
      <point x="535" y="43" type="qcurve" smooth="yes"/>
      <point x="459.626865672" y="43.0"/>
      <point x="346.0" y="174.029850746"/>
      <point x="346" y="330" type="qcurve" smooth="yes"/>
      <point x="346.0" y="623.28358209"/>
      <point x="539.044776119" y="1069.0"/>
      <point x="698" y="1069" type="qcurve" smooth="yes"/>
      <point x="788.298507463" y="1069.0"/>
      <point x="875.328358209" y="961.313432836"/>
      <point x="891" y="874" type="qcurve"/>
      <point x="897" y="874" type="line"/>
      <point x="936" y="1071" type="line"/>
      <point x="1235" y="1026" type="line"/>
      <point x="1100" y="352" type="line" smooth="yes"/>
      <point x="1079.85074627" y="249.76119403"/>
      <point x="1139.31343284" y="172.0"/>
      <point x="1202" y="172" type="qcurve" smooth="yes"/>
      <point x="1298.26865672" y="172.0"/>
      <point x="1427.0" y="440.686567164"/>
      <point x="1427" y="678" type="qcurve" smooth="yes"/>
      <point x="1427.0" y="1025.01492537"/>
      <point x="1111.29850746" y="1417.0"/>
      <point x="821" y="1417" type="qcurve" smooth="yes"/>
      <point x="532.194029851" y="1417.0"/>
      <point x="150.0" y="963.656716418"/>
      <point x="150" y="545" type="qcurve" smooth="yes"/>
      <point x="150.0" y="118.134328358"/>
      <point x="498.044776119" y="-307.0"/>
      <point x="807" y="-307" type="qcurve" smooth="yes"/>
      <point x="957.0" y="-307.0"/>
      <point x="1176.29850746" y="-232.626865672"/>
      <point x="1286" y="-158" type="qcurve"/>
      <point x="1329" y="-233" type="line"/>
      <point x="1213.32835821" y="-309.865671642"/>
      <point x="964.940298507" y="-393.0"/>
      <point x="803" y="-393" type="qcurve" smooth="yes"/>
      <point x="460.462686567" y="-393.0"/>
      <point x="61.0" y="75.0895522388"/>
      <point x="61" y="543" type="qcurve" smooth="yes"/>
      <point x="61.0" y="1011.65671642"/>
      <point x="502.611940299" y="1499.0"/>
    </contour>
    <contour>
      <point x="702" y="262" type="qcurve" smooth="yes"/>
      <point x="755.731343284" y="262.0"/>
      <point x="856.0" y="536.462686567"/>
      <point x="856" y="729" type="qcurve" smooth="yes"/>
      <point x="856.0" y="770.044776119"/>
      <point x="834.104477612" y="823.0"/>
      <point x="805" y="823" type="qcurve" smooth="yes"/>
      <point x="745.298507463" y="823.0"/>
      <point x="651.0" y="537.104477612"/>
      <point x="651" y="358" type="qcurve" smooth="yes"/>
      <point x="651.0" y="315.462686567"/>
      <point x="673.641791045" y="262.0"/>
    </contour>
  </outline>
</glyph>
<glyph name="C" format="1">
  <advance width="1009.664"/>
  <unicode hex="0043"/>
  <outline>
    <contour>
      <point x="621" y="573" type="qcurve"/>
      <point x="987" y="494" type="line"/>
      <point x="962.373134328" y="226.089552239"/>
      <point x="738.149253731" y="-25.0"/>
      <point x="518" y="-25" type="qcurve" smooth="yes"/>
      <point x="313.52238806" y="-25.0"/>
      <point x="41.0" y="274.626865672"/>
      <point x="41" y="600" type="qcurve" smooth="yes"/>
      <point x="41" y="874" type="line" smooth="yes"/>
      <point x="41.0" y="1200.11940299"/>
      <point x="313.552238806" y="1499.0"/>
      <point x="524" y="1499" type="qcurve" smooth="yes"/>
      <point x="759.820895522" y="1499.0"/>
      <point x="964.343283582" y="1216.07462687"/>
      <point x="983" y="981" type="qcurve"/>
      <point x="608" y="897" type="line"/>
      <point x="605.014925373" y="1073.11940299"/>
      <point x="570.268656716" y="1198.0"/>
      <point x="524" y="1198" type="qcurve" smooth="yes"/>
      <point x="472.507462687" y="1198.0"/>
      <point x="442.0" y="1057.85074627"/>
      <point x="442" y="928" type="qcurve" smooth="yes"/>
      <point x="442" y="549" type="line" smooth="yes"/>
      <point x="442.0" y="404.970149254"/>
      <point x="481.970149254" y="276.0"/>
      <point x="526" y="276" type="qcurve" smooth="yes"/>
      <point x="569.28358209" y="276.0"/>
      <point x="611.298507463" y="397.626865672"/>
    </contour>
  </outline>
</glyph>
<glyph name="D" format="1">
  <advance width="1069.056"/>
  <unicode hex="0044"/>
  <outline>
    <contour>
      <point x="1032" y="856" type="qcurve" smooth="yes"/>
      <point x="1032" y="618" type="line" smooth="yes"/>
      <point x="1032.0" y="298.597014925"/>
      <point x="754.910447761" y="0.0"/>
      <point x="537" y="0" type="qcurve" smooth="yes"/>
      <point x="55" y="0" type="line"/>
      <point x="55" y="1475" type="line"/>
      <point x="537" y="1475" type="line" smooth="yes"/>
      <point x="754.910447761" y="1475.0"/>
      <point x="1032.0" y="1175.40298507"/>
    </contour>
    <contour>
      <point x="506" y="291" type="line" smooth="yes"/>
      <point x="571.671641791" y="291.0"/>
      <point x="631.0" y="398.597014925"/>
      <point x="631" y="518" type="qcurve" smooth="yes"/>
      <point x="631" y="956" type="line" smooth="yes"/>
      <point x="631.0" y="1075.40298507"/>
      <point x="571.671641791" y="1184.0"/>
      <point x="506" y="1184" type="qcurve" smooth="yes"/>
      <point x="457" y="1184" type="line"/>
      <point x="457" y="291" type="line"/>
    </contour>
  </outline>
</glyph>
<glyph name="H" format="1">
  <advance width="1075.2"/>
  <unicode hex="0048"/>
  <outline>
    <contour>
      <point x="1022" y="1475" type="line"/>
      <point x="1022" y="0" type="line"/>
      <point x="621" y="0" type="line"/>
      <point x="621" y="596" type="line"/>
      <point x="457" y="596" type="line"/>
      <point x="457" y="0" type="line"/>
      <point x="55" y="0" type="line"/>
      <point x="55" y="1475" type="line"/>
      <point x="457" y="1475" type="line"/>
      <point x="457" y="922" type="line"/>
      <point x="621" y="922" type="line"/>
      <point x="621" y="1475" type="line"/>
    </contour>
  </outline>
</glyph>
<glyph name="I" format="1">
  <advance width="774.144"/>
  <unicode hex="0049"/>
  <outline>
    <contour>
      <point x="733" y="127" type="line"/>
      <point x="733" y="0" type="line"/>
      <point x="41" y="0" type="line"/>
      <point x="41" y="127" type="line"/>
      <point x="193" y="127" type="line"/>
      <point x="193" y="1348" type="line"/>
      <point x="41" y="1348" type="line"/>
      <point x="41" y="1475" type="line"/>
      <point x="733" y="1475" type="line"/>
      <point x="733" y="1348" type="line"/>
      <point x="582" y="1348" type="line"/>
      <point x="582" y="127" type="line"/>
    </contour>
  </outline>
</glyph>
<glyph name="J" format="1">
  <advance width="970.752"/>
  <unicode hex="004A"/>
  <outline>
    <contour>
      <point x="922" y="1475" type="line"/>
      <point x="922" y="469" type="line" smooth="yes"/>
      <point x="922.0" y="184.671641791"/>
      <point x="656.179104478" y="-25.0"/>
      <point x="442" y="-25" type="qcurve" smooth="yes"/>
      <point x="231.552238806" y="-25.0"/>
      <point x="7.01492537313" y="228.626865672"/>
      <point x="10" y="504" type="qcurve"/>
      <point x="373" y="575" type="line"/>
      <point x="373.0" y="413.059701493"/>
      <point x="401.23880597" y="276.0"/>
      <point x="449" y="276" type="qcurve" smooth="yes"/>
      <point x="493.029850746" y="276.0"/>
      <point x="520.0" y="361.268656716"/>
      <point x="520" y="465" type="qcurve" smooth="yes"/>
      <point x="520" y="1475" type="line"/>
    </contour>
  </outline>
</glyph>
<glyph name="M" format="1">
  <advance width="1515.52"/>
  <unicode hex="004D"/>
  <outline>
    <contour>
      <point x="1460" y="1475" type="line"/>
      <point x="1460" y="0" type="line"/>
      <point x="1094" y="0" type="line"/>
      <point x="1094" y="1008" type="line"/>
      <point x="1085" y="1008" type="line"/>
      <point x="940" y="0" type="line"/>
      <point x="551" y="0" type="line"/>
      <point x="406" y="1008" type="line"/>
      <point x="397" y="1008" type="line"/>
      <point x="397" y="0" type="line"/>
      <point x="55" y="0" type="line"/>
      <point x="55" y="1475" type="line"/>
      <point x="621" y="1475" type="line"/>
      <point x="758" y="512" type="line"/>
      <point x="764" y="512" type="line"/>
      <point x="901" y="1475" type="line"/>
    </contour>
  </outline>
</glyph>
<glyph name="N" format="1">
  <advance width="1064.96"/>
  <unicode hex="004E"/>
  <outline>
    <contour>
      <point x="1010" y="1475" type="line"/>
      <point x="1010" y="0" type="line"/>
      <point x="674" y="0" type="line"/>
      <point x="383" y="713" type="line"/>
      <point x="377" y="713" type="line"/>
      <point x="377" y="0" type="line"/>
      <point x="55" y="0" type="line"/>
      <point x="55" y="1475" type="line"/>
      <point x="422" y="1475" type="line"/>
      <point x="682" y="834" type="line"/>
      <point x="688" y="834" type="line"/>
      <point x="688" y="1475" type="line"/>
    </contour>
  </outline>
</glyph>
<glyph name="Q" format="1">
  <advance width="1081.344"/>
  <unicode hex="0051"/>
  <outline>
    <contour>
      <point x="1098" y="-37" type="qcurve"/>
      <point x="1098" y="-254" type="line"/>
      <point x="1080.8358209" y="-258.47761194"/>
      <point x="1037.6119403" y="-264.0"/>
      <point x="1010" y="-264" type="qcurve" smooth="yes"/>
      <point x="921.194029851" y="-264.0"/>
      <point x="803.52238806" y="-192.805970149"/>
      <point x="758" y="-104" type="qcurve" smooth="yes"/>
      <point x="705" y="-2" type="line"/>
      <point x="666.194029851" y="-12.447761194"/>
      <point x="583.537313433" y="-25.0"/>
      <point x="541" y="-25" type="qcurve" smooth="yes"/>
      <point x="322.343283582" y="-25.0"/>
      <point x="41.0" y="274.626865672"/>
      <point x="41" y="600" type="qcurve" smooth="yes"/>
      <point x="41" y="874" type="line" smooth="yes"/>
      <point x="41.0" y="1200.11940299"/>
      <point x="322.343283582" y="1499.0"/>
      <point x="541" y="1499" type="qcurve" smooth="yes"/>
      <point x="759.656716418" y="1499.0"/>
      <point x="1040.0" y="1200.11940299"/>
      <point x="1040" y="874" type="qcurve" smooth="yes"/>
      <point x="1040" y="600" type="line" smooth="yes"/>
      <point x="1040.0" y="422.388059701"/>
      <point x="953.119402985" y="174.865671642"/>
      <point x="877" y="98" type="qcurve"/>
      <point x="932" y="20" type="line" smooth="yes"/>
      <point x="958.119402985" y="-16.5671641791"/>
      <point x="1002.41791045" y="-47.0"/>
      <point x="1036" y="-47" type="qcurve" smooth="yes"/>
      <point x="1048.68656716" y="-47.0"/>
      <point x="1080.8358209" y="-41.4776119403"/>
    </contour>
    <contour>
      <point x="549" y="250" type="qcurve" smooth="yes"/>
      <point x="560.940298507" y="250.0"/>
      <point x="583.044776119" y="255.52238806"/>
      <point x="592" y="260" type="qcurve"/>
      <point x="477" y="479" type="line"/>
      <point x="580" y="541" type="line"/>
      <point x="655" y="408" type="line"/>
      <point x="655" y="973" type="line" smooth="yes"/>
      <point x="655.0" y="1087.17910448"/>
      <point x="608.701492537" y="1208.0"/>
      <point x="549" y="1208" type="qcurve" smooth="yes"/>
      <point x="489.298507463" y="1208.0"/>
      <point x="442.0" y="1087.17910448"/>
      <point x="442" y="973" type="qcurve" smooth="yes"/>
      <point x="442" y="485" type="line" smooth="yes"/>
      <point x="442.0" y="370.820895522"/>
      <point x="489.298507463" y="250.0"/>
    </contour>
  </outline>
</glyph>
<glyph name="T" format="1">
  <advance width="1009.664"/>
  <unicode hex="0054"/>
  <outline>
    <contour>
      <point x="979" y="1475" type="line"/>
      <point x="979" y="1151" type="line"/>
      <point x="702" y="1151" type="line"/>
      <point x="702" y="0" type="line"/>
      <point x="307" y="0" type="line"/>
      <point x="307" y="1151" type="line"/>
      <point x="31" y="1151" type="line"/>
      <point x="31" y="1475" type="line"/>
    </contour>
  </outline>
</glyph>
<glyph name="U" format="1">
  <advance width="1040.384"/>
  <unicode hex="0055"/>
  <outline>
    <contour>
      <point x="991" y="1475" type="line"/>
      <point x="991" y="485" type="line" smooth="yes"/>
      <point x="991.0" y="214.850746269"/>
      <point x="750.597014925" y="-25.0"/>
      <point x="520" y="-25" type="qcurve" smooth="yes"/>
      <point x="289.402985075" y="-25.0"/>
      <point x="49.0" y="221.104477612"/>
      <point x="49" y="492" type="qcurve" smooth="yes"/>
      <point x="49" y="1475" type="line"/>
      <point x="451" y="1475" type="line"/>
      <point x="451" y="434" type="line" smooth="yes"/>
      <point x="451.0" y="351.910447761"/>
      <point x="487.462686567" y="276.0"/>
      <point x="530" y="276" type="qcurve" smooth="yes"/>
      <point x="573.28358209" y="276.0"/>
      <point x="610.0" y="351.910447761"/>
      <point x="610" y="434" type="qcurve" smooth="yes"/>
      <point x="610" y="1475" type="line"/>
    </contour>
  </outline>
</glyph>
<glyph name="Z" format="1">
  <advance width="935.936"/>
  <unicode hex="005A"/>
  <outline>
    <contour>
      <point x="909" y="319" type="line"/>
      <point x="909" y="0" type="line"/>
      <point x="29" y="0" type="line"/>
      <point x="29" y="279" type="line"/>
      <point x="465" y="1155" type="line"/>
      <point x="53" y="1155" type="line"/>
      <point x="53" y="1475" type="line"/>
      <point x="909" y="1475" type="line"/>
      <point x="909" y="1196" type="line"/>
      <point x="473" y="319" type="line"/>
    </contour>
  </outline>
</glyph>
<glyph name="asciicircum" format="1">
  <advance width="905.216"/>
  <unicode hex="005E"/>
  <outline>
    <contour>
      <point x="608" y="1481" type="line"/>
      <point x="883" y="829" type="line"/>
      <point x="645" y="829" type="line"/>
      <point x="453" y="1124" type="line"/>
      <point x="262" y="829" type="line"/>
      <point x="23" y="829" type="line"/>
      <point x="297" y="1481" type="line"/>
    </contour>
  </outline>
</glyph>
<glyph name="underscore" format="1">
  <advance width="835.584"/>
  <unicode hex="005F"/>
  <outline>
    <contour>
      <point x="842" y="-78" type="line"/>
      <point x="842" y="-227" type="line"/>
      <point x="-6" y="-227" type="line"/>
      <point x="-6" y="-78" type="line"/>
    </contour>
  </outline>
</glyph>
<glyph name="c" format="1">
  <advance width="872.448"/>
  <unicode hex="0063"/>
  <outline>
    <contour>
      <point x="547" y="442" type="qcurve"/>
      <point x="856" y="387" type="line"/>
      <point x="834.358208955" y="187.0"/>
      <point x="645.029850746" y="-20.0"/>
      <point x="451" y="-20" type="qcurve" smooth="yes"/>
      <point x="254.731343284" y="-20.0"/>
      <point x="33.0" y="251.223880597"/>
      <point x="33" y="496" type="qcurve" smooth="yes"/>
      <point x="33" y="614" type="line" smooth="yes"/>
      <point x="33.0" y="858.776119403"/>
      <point x="268.970149254" y="1130.0"/>
      <point x="463" y="1130" type="qcurve" smooth="yes"/>
      <point x="655.537313433" y="1130.0"/>
      <point x="842.059701493" y="900.611940299"/>
      <point x="854" y="723" type="qcurve"/>
      <point x="532" y="666" type="line"/>
      <point x="530.507462687" y="792.865671642"/>
      <point x="500.104477612" y="877.0"/>
      <point x="471" y="877" type="qcurve" smooth="yes"/>
      <point x="438.910447761" y="877.0"/>
      <point x="408.0" y="781.298507463"/>
      <point x="408" y="641" type="qcurve" smooth="yes"/>
      <point x="408" y="469" type="line" smooth="yes"/>
      <point x="408.0" y="328.701492537"/>
      <point x="440.402985075" y="233.0"/>
      <point x="471" y="233" type="qcurve" smooth="yes"/>
      <point x="501.597014925" y="233.0"/>
      <point x="539.537313433" y="316.626865672"/>
    </contour>
  </outline>
</glyph>
<glyph name="e" format="1">
  <advance width="940.032"/>
  <unicode hex="0065"/>
  <outline>
    <contour>
      <point x="498" y="-14" type="qcurve" smooth="yes"/>
      <point x="276.358208955" y="-14.0"/>
      <point x="33.0" y="246.746268657"/>
      <point x="33" y="496" type="qcurve" smooth="yes"/>
      <point x="33" y="614" type="line" smooth="yes"/>
      <point x="33.0" y="858.776119403"/>
      <point x="268.044776119" y="1130.0"/>
      <point x="477" y="1130" type="qcurve" smooth="yes"/>
      <point x="686.701492537" y="1130.0"/>
      <point x="905.0" y="844.71641791"/>
      <point x="905" y="588" type="qcurve" smooth="yes"/>
      <point x="905" y="455" type="line"/>
      <point x="389" y="455" type="line"/>
      <point x="393.47761194" y="340.074626866"/>
      <point x="486.940298507" y="264.0"/>
      <point x="575" y="264" type="qcurve" smooth="yes"/>
      <point x="628.731343284" y="264.0"/>
      <point x="776.865671642" y="307.432835821"/>
      <point x="850" y="344" type="qcurve"/>
      <point x="922" y="88" type="line"/>
      <point x="825.731343284" y="39.4925373134"/>
      <point x="620.388059701" y="-14.0"/>
    </contour>
    <contour>
      <point x="561" y="608" type="line"/>
      <point x="561.0" y="791.582089552"/>
      <point x="517.537313433" y="895.0"/>
      <point x="475" y="895" type="qcurve" smooth="yes"/>
      <point x="433.955223881" y="895.0"/>
      <point x="389.0" y="788.597014925"/>
      <point x="389" y="608" type="qcurve"/>
    </contour>
  </outline>
</glyph>
<glyph name="g" format="1">
  <advance width="970.752"/>
  <unicode hex="0067"/>
  <outline>
    <contour>
      <point x="922" y="1077" type="line"/>
      <point x="922" y="51" type="line" smooth="yes"/>
      <point x="922.0" y="-188.552238806"/>
      <point x="675.701492537" y="-391.0"/>
      <point x="416" y="-391" type="qcurve" smooth="yes"/>
      <point x="319.731343284" y="-391.0"/>
      <point x="163.47761194" y="-362.656716418"/>
      <point x="109" y="-344" type="qcurve"/>
      <point x="109" y="-111" type="line"/>
      <point x="176" y="-111" type="line"/>
      <point x="205.104477612" y="-156.52238806"/>
      <point x="289.343283582" y="-207.0"/>
      <point x="358" y="-207" type="qcurve" smooth="yes"/>
      <point x="451.28358209" y="-207.0"/>
      <point x="541.0" y="-107.164179104"/>
      <point x="541" y="10" type="qcurve" smooth="yes"/>
      <point x="541" y="174" type="line"/>
      <point x="537" y="174" type="line"/>
      <point x="489.23880597" y="88.1791044776"/>
      <point x="378.850746269" y="-14.0"/>
      <point x="299" y="-14" type="qcurve" smooth="yes"/>
      <point x="190.791044776" y="-14.0"/>
      <point x="33.0" y="225.164179104"/>
      <point x="33" y="508" type="qcurve" smooth="yes"/>
      <point x="33" y="602" type="line" smooth="yes"/>
      <point x="33.0" y="884.835820896"/>
      <point x="190.791044776" y="1124.0"/>
      <point x="299" y="1124" type="qcurve" smooth="yes"/>
      <point x="378.850746269" y="1124.0"/>
      <point x="489.23880597" y="1027.34328358"/>
      <point x="537" y="946" type="qcurve"/>
      <point x="541" y="946" type="line"/>
      <point x="541" y="1126" type="line"/>
    </contour>
    <contour>
      <point x="479" y="242" type="qcurve" smooth="yes"/>
      <point x="514.074626866" y="242.0"/>
      <point x="551.0" y="371.417910448"/>
      <point x="551" y="555" type="qcurve" smooth="yes"/>
      <point x="551.0" y="738.582089552"/>
      <point x="514.074626866" y="868.0"/>
      <point x="479" y="868" type="qcurve" smooth="yes"/>
      <point x="443.925373134" y="868.0"/>
      <point x="408.0" y="738.582089552"/>
      <point x="408" y="555" type="qcurve" smooth="yes"/>
      <point x="408.0" y="371.417910448"/>
      <point x="443.925373134" y="242.0"/>
    </contour>
  </outline>
</glyph>
<glyph name="j" format="1">
  <advance width="487.424"/>
  <unicode hex="006A"/>
  <outline>
    <contour>
      <point x="434" y="1110" type="line"/>
      <point x="434" y="-39" type="line" smooth="yes"/>
      <point x="434.0" y="-237.507462687"/>
      <point x="250.417910448" y="-389.0"/>
      <point x="84" y="-389" type="qcurve" smooth="yes"/>
      <point x="19.8208955224" y="-389.0"/>
      <point x="-68.7313432836" y="-376.940298507"/>
      <point x="-115" y="-365" type="qcurve"/>
      <point x="-115" y="-143" type="line"/>
      <point x="-93.3582089552" y="-152.701492537"/>
      <point x="-52.3731343284" y="-160.0"/>
      <point x="-27" y="-160" type="qcurve" smooth="yes"/>
      <point x="10.3134328358" y="-160.0"/>
      <point x="53.0" y="-118.507462687"/>
      <point x="53" y="-70" type="qcurve" smooth="yes"/>
      <point x="53" y="1110" type="line"/>
    </contour>
    <contour>
      <point x="436" y="1475" type="line"/>
      <point x="436" y="1204" type="line"/>
      <point x="51" y="1204" type="line"/>
      <point x="51" y="1475" type="line"/>
    </contour>
  </outline>
</glyph>
<glyph name="m" format="1">
  <advance width="1443.84"/>
  <unicode hex="006D"/>
  <outline>
    <contour>
      <point x="424" y="0" type="line"/>
      <point x="49" y="0" type="line"/>
      <point x="49" y="1077" type="line"/>
      <point x="424" y="1126" type="line"/>
      <point x="424" y="922" type="line"/>
      <point x="430" y="922" type="line"/>
      <point x="506.119402985" y="1030.20895522"/>
      <point x="630.641791045" y="1124.0"/>
      <point x="709" y="1124" type="qcurve" smooth="yes"/>
      <point x="791.089552239" y="1124.0"/>
      <point x="895.059701493" y="1024.23880597"/>
      <point x="907" y="922" type="qcurve"/>
      <point x="918" y="922" type="line"/>
      <point x="994.119402985" y="1030.20895522"/>
      <point x="1118.3880597" y="1124.0"/>
      <point x="1196" y="1124" type="qcurve" smooth="yes"/>
      <point x="1290.7761194" y="1124.0"/>
      <point x="1399.0" y="990.805970149"/>
      <point x="1399" y="852" type="qcurve" smooth="yes"/>
      <point x="1399" y="0" type="line"/>
      <point x="1024" y="0" type="line"/>
      <point x="1024" y="760" type="line" smooth="yes"/>
      <point x="1024.0" y="799.552238806"/>
      <point x="997.597014925" y="840.0"/>
      <point x="967" y="840" type="qcurve" smooth="yes"/>
      <point x="951.328358209" y="840.0"/>
      <point x="926.671641791" y="831.208955224"/>
      <point x="911" y="823" type="qcurve"/>
      <point x="911" y="0" type="line"/>
      <point x="537" y="0" type="line"/>
      <point x="537" y="760" type="line" smooth="yes"/>
      <point x="537.0" y="799.552238806"/>
      <point x="509.597014925" y="840.0"/>
      <point x="479" y="840" type="qcurve" smooth="yes"/>
      <point x="464.074626866" y="840.0"/>
      <point x="438.925373134" y="831.208955224"/>
      <point x="424" y="823" type="qcurve"/>
    </contour>
  </outline>
</glyph>
<glyph name="o" format="1">
  <advance width="952.32"/>
  <unicode hex="006F"/>
  <outline>
    <contour>
      <point x="922" y="614" type="qcurve" smooth="yes"/>
      <point x="922" y="496" type="line" smooth="yes"/>
      <point x="922.0" y="251.223880597"/>
      <point x="686.701492537" y="-20.0"/>
      <point x="477" y="-20" type="qcurve" smooth="yes"/>
      <point x="268.044776119" y="-20.0"/>
      <point x="33.0" y="251.223880597"/>
      <point x="33" y="496" type="qcurve" smooth="yes"/>
      <point x="33" y="614" type="line" smooth="yes"/>
      <point x="33.0" y="858.776119403"/>
      <point x="268.044776119" y="1130.0"/>
      <point x="477" y="1130" type="qcurve" smooth="yes"/>
      <point x="686.701492537" y="1130.0"/>
      <point x="922.0" y="858.776119403"/>
    </contour>
    <contour>
      <point x="477" y="225" type="qcurve" smooth="yes"/>
      <point x="518.044776119" y="225.0"/>
      <point x="547.0" y="328.701492537"/>
      <point x="547" y="469" type="qcurve" smooth="yes"/>
      <point x="547" y="641" type="line" smooth="yes"/>
      <point x="547.0" y="781.298507463"/>
      <point x="518.044776119" y="885.0"/>
      <point x="477" y="885" type="qcurve" smooth="yes"/>
      <point x="435.955223881" y="885.0"/>
      <point x="408.0" y="781.298507463"/>
      <point x="408" y="641" type="qcurve" smooth="yes"/>
      <point x="408" y="469" type="line" smooth="yes"/>
      <point x="408.0" y="328.701492537"/>
      <point x="435.955223881" y="225.0"/>
    </contour>
  </outline>
</glyph>
<glyph name="s" format="1">
  <advance width="808.96"/>
  <unicode hex="0073"/>
  <outline>
    <contour>
      <point x="479" y="715" type="qcurve" smooth="yes"/>
      <point x="642.432835821" y="662.76119403"/>
      <point x="791.0" y="485.313432836"/>
      <point x="791" y="348" type="qcurve" smooth="yes"/>
      <point x="791.0" y="164.417910448"/>
      <point x="575.119402985" y="-20.0"/>
      <point x="399" y="-20" type="qcurve" smooth="yes"/>
      <point x="270.641791045" y="-20.0"/>
      <point x="70.1492537313" y="79.7313432836"/>
      <point x="0" y="176" type="qcurve"/>
      <point x="197" y="381" type="line"/>
      <point x="252.970149254" y="309.358208955"/>
      <point x="355.76119403" y="246.0"/>
      <point x="408" y="246" type="qcurve" smooth="yes"/>
      <point x="446.059701493" y="246.0"/>
      <point x="494.0" y="274.373134328"/>
      <point x="494" y="299" type="qcurve" smooth="yes"/>
      <point x="494.0" y="328.104477612"/>
      <point x="433.28358209" y="363.895522388"/>
      <point x="340" y="393" type="qcurve" smooth="yes"/>
      <point x="173.582089552" y="446.731343284"/>
      <point x="33.0" y="632.656716418"/>
      <point x="33" y="764" type="qcurve" smooth="yes"/>
      <point x="33.0" y="939.373134328"/>
      <point x="252.029850746" y="1130.0"/>
      <point x="408" y="1130" type="qcurve" smooth="yes"/>
      <point x="529.641791045" y="1130.0"/>
      <point x="709.820895522" y="1036.80597015"/>
      <point x="774" y="948" type="qcurve"/>
      <point x="580" y="743" type="line"/>
      <point x="527.76119403" y="810.910447761"/>
      <point x="445.268656716" y="864.0"/>
      <point x="399" y="864" type="qcurve" smooth="yes"/>
      <point x="368.402985075" y="864.0"/>
      <point x="332.0" y="834.134328358"/>
      <point x="332" y="811" type="qcurve" smooth="yes"/>
      <point x="332.0" y="783.388059701"/>
      <point x="391.686567164" y="742.611940299"/>
    </contour>
  </outline>
</glyph>
<glyph name="u" format="1">
  <advance width="974.848"/>
  <unicode hex="0075"/>
  <outline>
    <contour>
      <point x="926" y="1110" type="line"/>
      <point x="926" y="33" type="line"/>
      <point x="545" y="-16" type="line"/>
      <point x="545" y="188" type="line"/>
      <point x="539" y="188" type="line"/>
      <point x="460.641791045" y="79.7910447761"/>
      <point x="331.104477612" y="-14.0"/>
      <point x="252" y="-14" type="qcurve" smooth="yes"/>
      <point x="157.223880597" y="-14.0"/>
      <point x="45.0" y="119.194029851"/>
      <point x="45" y="258" type="qcurve" smooth="yes"/>
      <point x="45" y="1110" type="line"/>
      <point x="426" y="1110" type="line"/>
      <point x="426" y="350" type="line" smooth="yes"/>
      <point x="426.0" y="310.447761194"/>
      <point x="452.910447761" y="270.0"/>
      <point x="485" y="270" type="qcurve" smooth="yes"/>
      <point x="500.671641791" y="270.0"/>
      <point x="529.328358209" y="278.791044776"/>
      <point x="545" y="287" type="qcurve"/>
      <point x="545" y="1110" type="line"/>
    </contour>
  </outline>
</glyph>
<glyph name="asciitilde" format="1">
  <advance width="671.744"/>
  <unicode hex="007E"/>
  <outline>
    <contour>
      <point x="492" y="778" type="qcurve"/>
      <point x="641" y="778" type="line"/>
      <point x="651.447761194" y="592.925373134"/>
      <point x="567.268656716" y="420.0"/>
      <point x="471" y="420" type="qcurve" smooth="yes"/>
      <point x="383.686567164" y="420.0"/>
      <point x="274.28358209" y="522.0"/>
      <point x="231" y="522" type="qcurve" smooth="yes"/>
      <point x="205.626865672" y="522.0"/>
      <point x="181.492537313" y="477.731343284"/>
      <point x="180" y="424" type="qcurve"/>
      <point x="31" y="424" type="line"/>
      <point x="19.8059701493" y="609.074626866"/>
      <point x="104.731343284" y="782.0"/>
      <point x="201" y="782" type="qcurve" smooth="yes"/>
      <point x="287.567164179" y="782.0"/>
      <point x="397.462686567" y="680.0"/>
      <point x="440" y="680" type="qcurve" smooth="yes"/>
      <point x="466.119402985" y="680.0"/>
      <point x="489.76119403" y="725.014925373"/>
    </contour>
  </outline>
</glyph>
<glyph name="exclamdown" format="1">
  <advance width="520.192"/>
  <unicode hex="00A1"/>
  <outline>
    <contour>
      <point x="260" y="1489" type="qcurve" smooth="yes"/>
      <point x="342.835820896" y="1489.0"/>
      <point x="455.0" y="1376.8358209"/>
      <point x="455" y="1294" type="qcurve" smooth="yes"/>
      <point x="455.0" y="1211.91044776"/>
      <point x="342.835820896" y="1100.0"/>
      <point x="260" y="1100" type="qcurve" smooth="yes"/>
      <point x="177.910447761" y="1100.0"/>
      <point x="66.0" y="1211.91044776"/>
      <point x="66" y="1294" type="qcurve" smooth="yes"/>
      <point x="66.0" y="1376.8358209"/>
      <point x="177.910447761" y="1489.0"/>
    </contour>
    <contour>
      <point x="362" y="997" type="line"/>
      <point x="479" y="0" type="line"/>
      <point x="41" y="0" type="line"/>
      <point x="158" y="997" type="line"/>
    </contour>
  </outline>
</glyph>
<glyph name="cent" format="1">
  <advance width="872.448"/>
  <unicode hex="00A2"/>
  <outline>
    <contour>
      <point x="567" y="442" type="qcurve"/>
      <point x="856" y="387" type="line"/>
      <point x="834.358208955" y="187.0"/>
      <point x="645.029850746" y="-20.0"/>
      <point x="451" y="-20" type="qcurve" smooth="yes"/>
      <point x="404.731343284" y="-20.0"/>
      <point x="321.567164179" y="-4.92537313433"/>
      <point x="285" y="10" type="qcurve"/>
      <point x="188" y="-195" type="line"/>
      <point x="43" y="-195" type="line"/>
      <point x="174" y="80" type="line"/>
      <point x="105.343283582" y="145.671641791"/>
      <point x="33.0" y="356.447761194"/>
      <point x="33" y="496" type="qcurve" smooth="yes"/>
      <point x="33" y="614" type="line" smooth="yes"/>
      <point x="33.0" y="858.776119403"/>
      <point x="268.970149254" y="1130.0"/>
      <point x="463" y="1130" type="qcurve" smooth="yes"/>
      <point x="514.492537313" y="1130.0"/>
      <point x="604.432835821" y="1112.41791045"/>
      <point x="641" y="1096" type="qcurve"/>
      <point x="735" y="1305" type="line"/>
      <point x="877" y="1305" type="line"/>
      <point x="414" y="258" type="line"/>
      <point x="425.940298507" y="237.850746269"/>
      <point x="456.074626866" y="223.0"/>
      <point x="471" y="223" type="qcurve" smooth="yes"/>
      <point x="506.074626866" y="223.0"/>
      <point x="559.537313433" y="309.164179104"/>
    </contour>
    <contour>
      <point x="379" y="487" type="line"/>
      <point x="537" y="852" type="line"/>
      <point x="524.313432836" y="875.134328358"/>
      <point x="489.656716418" y="891.0"/>
      <point x="471" y="891" type="qcurve" smooth="yes"/>
      <point x="438.910447761" y="891.0"/>
      <point x="379.0" y="792.970149254"/>
      <point x="379" y="637" type="qcurve" smooth="yes"/>
    </contour>
  </outline>
</glyph>
<glyph name="yen" format="1">
  <advance width="1050.624"/>
  <unicode hex="00A5"/>
  <outline>
    <contour>
      <point x="688" y="1475" type="line"/>
      <point x="1051" y="1475" type="line"/>
      <point x="813" y="854" type="line"/>
      <point x="989" y="854" type="line"/>
      <point x="989" y="659" type="line"/>
      <point x="739" y="659" type="line"/>
      <point x="717" y="600" type="line"/>
      <point x="717" y="547" type="line"/>
      <point x="989" y="547" type="line"/>
      <point x="989" y="352" type="line"/>
      <point x="717" y="352" type="line"/>
      <point x="717" y="0" type="line"/>
      <point x="336" y="0" type="line"/>
      <point x="336" y="352" type="line"/>
      <point x="63" y="352" type="line"/>
      <point x="63" y="547" type="line"/>
      <point x="336" y="547" type="line"/>
      <point x="336" y="592" type="line"/>
      <point x="309" y="659" type="line"/>
      <point x="63" y="659" type="line"/>
      <point x="63" y="854" type="line"/>
      <point x="236" y="854" type="line"/>
      <point x="0" y="1475" type="line"/>
      <point x="418" y="1475" type="line"/>
      <point x="553" y="952" type="line"/>
    </contour>
  </outline>
</glyph>
<glyph name="ordfeminine" format="1">
  <advance width="636.928"/>
  <unicode hex="00AA"/>
  <outline>
    <contour>
      <point x="633" y="809" type="qcurve"/>
      <point x="633" y="715" type="line"/>
      <point x="513.597014925" y="715.0"/>
      <point x="385.611940299" y="769.47761194"/>
      <point x="358" y="815" type="qcurve"/>
      <point x="350" y="815" type="line"/>
      <point x="322.388059701" y="772.462686567"/>
      <point x="238.208955224" y="715.0"/>
      <point x="180" y="715" type="qcurve" smooth="yes"/>
      <point x="102.388059701" y="715.0"/>
      <point x="8.0" y="820.985074627"/>
      <point x="8" y="918" type="qcurve" smooth="yes"/>
      <point x="8.0" y="1026.20895522"/>
      <point x="168.597014925" y="1155.34328358"/>
      <point x="338" y="1174" type="qcurve"/>
      <point x="338" y="1229" type="line" smooth="yes"/>
      <point x="338.0" y="1261.08955224"/>
      <point x="304.597014925" y="1300.0"/>
      <point x="274" y="1300" type="qcurve" smooth="yes"/>
      <point x="243.402985075" y="1300.0"/>
      <point x="159.194029851" y="1276.07462687"/>
      <point x="98" y="1241" type="qcurve"/>
      <point x="33" y="1393" type="line"/>
      <point x="106.134328358" y="1435.53731343"/>
      <point x="266.925373134" y="1485.0"/>
      <point x="352" y="1485" type="qcurve" smooth="yes"/>
      <point x="477.373134328" y="1485.0"/>
      <point x="590.0" y="1376.88059701"/>
      <point x="590" y="1253" type="qcurve" smooth="yes"/>
      <point x="590" y="870" type="line" smooth="yes"/>
      <point x="590.0" y="837.910447761"/>
      <point x="606.880597015" y="814.970149254"/>
    </contour>
    <contour>
      <point x="307" y="874" type="qcurve" smooth="yes"/>
      <point x="315.955223881" y="874.0"/>
      <point x="330.537313433" y="875.776119403"/>
      <point x="338" y="881" type="qcurve"/>
      <point x="338" y="1075" type="line"/>
      <point x="285.76119403" y="1060.07462687"/>
      <point x="250.0" y="998.776119403"/>
      <point x="250" y="954" type="qcurve" smooth="yes"/>
      <point x="250.0" y="912.955223881"/>
      <point x="280.880597015" y="874.0"/>
    </contour>
    <contour>
      <point x="623" y="641" type="line"/>
      <point x="623" y="487" type="line"/>
      <point x="25" y="487" type="line"/>
      <point x="25" y="641" type="line"/>
    </contour>
  </outline>
</glyph>
<glyph name="guillemotleft" format="1">
  <advance width="921.6"/>
  <unicode hex="00AB"/>
  <outline>
    <contour>
      <point x="365" y="555" type="line"/>
      <point x="475" y="133" type="line"/>
      <point x="293" y="133" type="line"/>
      <point x="16" y="555" type="line"/>
      <point x="293" y="977" type="line"/>
      <point x="475" y="977" type="line"/>
    </contour>
    <contour>
      <point x="768" y="555" type="line"/>
      <point x="881" y="133" type="line"/>
      <point x="696" y="133" type="line"/>
      <point x="420" y="555" type="line"/>
      <point x="696" y="977" type="line"/>
      <point x="881" y="977" type="line"/>
    </contour>
  </outline>
</glyph>
<glyph name="paragraph" format="1">
  <advance width="929.792"/>
  <unicode hex="00B6"/>
  <outline>
    <contour>
      <point x="856" y="1475" type="line"/>
      <point x="856" y="0" type="line"/>
      <point x="729" y="0" type="line"/>
      <point x="729" y="1329" type="line"/>
      <point x="596" y="1329" type="line"/>
      <point x="596" y="0" type="line"/>
      <point x="469" y="0" type="line"/>
      <point x="469" y="567" type="line"/>
      <point x="254.820895522" y="571.47761194"/>
      <point x="25.0" y="770.23880597"/>
      <point x="25" y="1018" type="qcurve" smooth="yes"/>
      <point x="25.0" y="1256.05970149"/>
      <point x="268.044776119" y="1475.0"/>
      <point x="477" y="1475" type="qcurve" smooth="yes"/>
    </contour>
  </outline>
</glyph>
<glyph name="periodcentered" format="1">
  <advance width="487.424"/>
  <unicode hex="00B7"/>
  <outline>
    <contour>
      <point x="244" y="764" type="qcurve" smooth="yes"/>
      <point x="326.089552239" y="764.0"/>
      <point x="438.0" y="651.835820896"/>
      <point x="438" y="569" type="qcurve" smooth="yes"/>
      <point x="438.0" y="486.910447761"/>
      <point x="326.089552239" y="375.0"/>
      <point x="244" y="375" type="qcurve" smooth="yes"/>
      <point x="161.164179104" y="375.0"/>
      <point x="49.0" y="486.910447761"/>
      <point x="49" y="569" type="qcurve" smooth="yes"/>
      <point x="49.0" y="651.835820896"/>
      <point x="161.164179104" y="764.0"/>
    </contour>
  </outline>
</glyph>
<glyph name="Eth" format="1">
  <advance width="1126.4"/>
  <unicode hex="00D0"/>
  <outline>
    <contour>
      <point x="1085" y="856" type="qcurve" smooth="yes"/>
      <point x="1085" y="618" type="line" smooth="yes"/>
      <point x="1085.0" y="298.597014925"/>
      <point x="808.656716418" y="0.0"/>
      <point x="590" y="0" type="qcurve" smooth="yes"/>
      <point x="109" y="0" type="line"/>
      <point x="109" y="606" type="line"/>
      <point x="35" y="606" type="line"/>
      <point x="35" y="905" type="line"/>
      <point x="109" y="905" type="line"/>
      <point x="109" y="1475" type="line"/>
      <point x="590" y="1475" type="line" smooth="yes"/>
      <point x="808.656716418" y="1475.0"/>
      <point x="1085.0" y="1175.40298507"/>
    </contour>
    <contour>
      <point x="559" y="291" type="line" smooth="yes"/>
      <point x="624.671641791" y="291.0"/>
      <point x="684.0" y="398.597014925"/>
      <point x="684" y="518" type="qcurve" smooth="yes"/>
      <point x="684" y="956" type="line" smooth="yes"/>
      <point x="684.0" y="1075.40298507"/>
      <point x="624.671641791" y="1184.0"/>
      <point x="559" y="1184" type="qcurve" smooth="yes"/>
      <point x="510" y="1184" type="line"/>
      <point x="510" y="905" type="line"/>
      <point x="592" y="905" type="line"/>
      <point x="592" y="606" type="line"/>
      <point x="510" y="606" type="line"/>
      <point x="510" y="291" type="line"/>
    </contour>
  </outline>
</glyph>
<glyph name="multiply" format="1">
  <advance width="1044.48"/>
  <unicode hex="00D7"/>
  <outline>
    <contour>
      <point x="723" y="723" type="line"/>
      <point x="944" y="504" type="line"/>
      <point x="741" y="301" type="line"/>
      <point x="520" y="520" type="line"/>
      <point x="301" y="301" type="line"/>
      <point x="98" y="504" type="line"/>
      <point x="317" y="723" type="line"/>
      <point x="98" y="942" type="line"/>
      <point x="301" y="1145" type="line"/>
      <point x="520" y="926" type="line"/>
      <point x="739" y="1147" type="line"/>
      <point x="942" y="944" type="line"/>
    </contour>
  </outline>
</glyph>
<glyph name="Oslash" format="1">
  <advance width="1081.344"/>
  <unicode hex="00D8"/>
  <outline>
    <contour>
      <point x="850" y="1673" type="line"/>
      <point x="1047" y="1673" type="line"/>
      <point x="897" y="1354" type="line"/>
      <point x="964.164179104" y="1278.62686567"/>
      <point x="1040.0" y="1039.67164179"/>
      <point x="1040" y="874" type="qcurve" smooth="yes"/>
      <point x="1040" y="600" type="line" smooth="yes"/>
      <point x="1040.0" y="274.626865672"/>
      <point x="759.656716418" y="-25.0"/>
      <point x="541" y="-25" type="qcurve" smooth="yes"/>
      <point x="481.298507463" y="-25.0"/>
      <point x="370.507462687" y="-2.89552238806"/>
      <point x="322" y="18" type="qcurve"/>
      <point x="236" y="-195" type="line"/>
      <point x="39" y="-195" type="line"/>
      <point x="184" y="119" type="line"/>
      <point x="116.835820896" y="193.626865672"/>
      <point x="41.0" y="433.582089552"/>
      <point x="41" y="600" type="qcurve" smooth="yes"/>
      <point x="41" y="874" type="line" smooth="yes"/>
      <point x="41.0" y="1200.11940299"/>
      <point x="322.343283582" y="1499.0"/>
      <point x="541" y="1499" type="qcurve" smooth="yes"/>
      <point x="600.701492537" y="1499.0"/>
      <point x="712.746268657" y="1477.13432836"/>
      <point x="762" y="1454" type="qcurve"/>
    </contour>
    <contour>
      <point x="442" y="668" type="line"/>
      <point x="629" y="1135" type="line"/>
      <point x="617.805970149" y="1177.53731343"/>
      <point x="577.567164179" y="1223.0"/>
      <point x="541" y="1223" type="qcurve" smooth="yes"/>
      <point x="482.791044776" y="1223.0"/>
      <point x="440.0" y="1102.43283582"/>
      <point x="440" y="989" type="qcurve" smooth="yes"/>
      <point x="440" y="664" type="line"/>
    </contour>
    <contour>
      <point x="541" y="254" type="qcurve" smooth="yes"/>
      <point x="598.462686567" y="254.0"/>
      <point x="641.0" y="374.313432836"/>
      <point x="641" y="487" type="qcurve" smooth="yes"/>
      <point x="641" y="803" type="line"/>
      <point x="453" y="338" type="line"/>
      <point x="463.447761194" y="298.447761194"/>
      <point x="505.925373134" y="254.0"/>
    </contour>
  </outline>
</glyph>
<glyph name="ccedilla" format="1">
  <advance width="872.448"/>
  <unicode hex="00E7"/>
  <outline>
    <contour>
      <point x="547" y="442" type="qcurve"/>
      <point x="856" y="387" type="line"/>
      <point x="835.850746269" y="198.940298507"/>
      <point x="666.895522388" y="-7.55223880597"/>
      <point x="496" y="-18" type="qcurve"/>
      <point x="451" y="-84" type="line"/>
      <point x="462.940298507" y="-82.5074626866"/>
      <point x="509.611940299" y="-78.0"/>
      <point x="532" y="-78" type="qcurve" smooth="yes"/>
      <point x="601.402985075" y="-78.0"/>
      <point x="690.0" y="-135.298507463"/>
      <point x="690" y="-195" type="qcurve" smooth="yes"/>
      <point x="690.0" y="-298.731343284"/>
      <point x="470.641791045" y="-396.970149254"/>
      <point x="199" y="-391" type="qcurve"/>
      <point x="199" y="-319" type="line"/>
      <point x="374.373134328" y="-319.0"/>
      <point x="506.0" y="-279.582089552"/>
      <point x="506" y="-246" type="qcurve" smooth="yes"/>
      <point x="506.0" y="-227.343283582"/>
      <point x="477.865671642" y="-209.0"/>
      <point x="451" y="-209" type="qcurve" smooth="yes"/>
      <point x="429.358208955" y="-209.0"/>
      <point x="381.134328358" y="-220.044776119"/>
      <point x="358" y="-229" type="qcurve"/>
      <point x="293" y="-180" type="line"/>
      <point x="403" y="-18" type="line"/>
      <point x="229.119402985" y="-1.58208955224"/>
      <point x="33.0" y="266.149253731"/>
      <point x="33" y="496" type="qcurve" smooth="yes"/>
      <point x="33" y="614" type="line" smooth="yes"/>
      <point x="33.0" y="858.776119403"/>
      <point x="268.970149254" y="1130.0"/>
      <point x="463" y="1130" type="qcurve" smooth="yes"/>
      <point x="655.537313433" y="1130.0"/>
      <point x="842.059701493" y="900.611940299"/>
      <point x="854" y="723" type="qcurve"/>
      <point x="532" y="666" type="line"/>
      <point x="530.507462687" y="792.865671642"/>
      <point x="500.104477612" y="877.0"/>
      <point x="471" y="877" type="qcurve" smooth="yes"/>
      <point x="438.910447761" y="877.0"/>
      <point x="408.0" y="781.298507463"/>
      <point x="408" y="641" type="qcurve" smooth="yes"/>
      <point x="408" y="469" type="line" smooth="yes"/>
      <point x="408.0" y="328.701492537"/>
      <point x="440.402985075" y="233.0"/>
      <point x="471" y="233" type="qcurve" smooth="yes"/>
      <point x="501.597014925" y="233.0"/>
      <point x="539.537313433" y="316.626865672"/>
    </contour>
  </outline>
</glyph>
<glyph name="eth" format="1">
  <advance width="925.696"/>
  <unicode hex="00F0"/>
  <outline>
    <contour>
      <point x="913" y="664" type="qcurve" smooth="yes"/>
      <point x="913" y="518" type="line" smooth="yes"/>
      <point x="913.0" y="235.164179104"/>
      <point x="661.0" y="-20.0"/>
      <point x="461" y="-20" type="qcurve" smooth="yes"/>
      <point x="261.0" y="-20.0"/>
      <point x="37.0" y="235.164179104"/>
      <point x="37" y="518" type="qcurve" smooth="yes"/>
      <point x="37" y="590" type="line" smooth="yes"/>
      <point x="37.0" y="872.835820896"/>
      <point x="209.253731343" y="1110.0"/>
      <point x="360" y="1110" type="qcurve" smooth="yes"/>
      <point x="415.223880597" y="1110.0"/>
      <point x="515.925373134" y="1042.6119403"/>
      <point x="551" y="965" type="qcurve"/>
      <point x="563" y="965" type="line"/>
      <point x="551.059701493" y="1029.17910448"/>
      <point x="476.71641791" y="1179.86567164"/>
      <point x="420" y="1253" type="qcurve"/>
      <point x="229" y="1169" type="line"/>
      <point x="229" y="1307" type="line"/>
      <point x="334" y="1352" type="line"/>
      <point x="303.402985075" y="1382.59701493"/>
      <point x="235.567164179" y="1440.11940299"/>
      <point x="199" y="1464" type="qcurve"/>
      <point x="500" y="1561" type="line"/>
      <point x="527.611940299" y="1539.35820896"/>
      <point x="579.373134328" y="1492.11940299"/>
      <point x="604" y="1466" type="qcurve"/>
      <point x="821" y="1561" type="line"/>
      <point x="821" y="1432" type="line"/>
      <point x="686" y="1372" type="line"/>
      <point x="788.23880597" y="1239.1641791"/>
      <point x="913.0" y="881.910447761"/>
    </contour>
    <contour>
      <point x="475" y="225" type="qcurve" smooth="yes"/>
      <point x="511.567164179" y="225.0"/>
      <point x="545.0" y="323.462686567"/>
      <point x="545" y="516" type="qcurve" smooth="yes"/>
      <point x="545" y="592" type="line" smooth="yes"/>
      <point x="545.0" y="783.044776119"/>
      <point x="511.567164179" y="885.0"/>
      <point x="475" y="885" type="qcurve" smooth="yes"/>
      <point x="438.432835821" y="885.0"/>
      <point x="406.0" y="783.044776119"/>
      <point x="406" y="592" type="qcurve" smooth="yes"/>
      <point x="406" y="516" type="line" smooth="yes"/>
      <point x="406.0" y="326.447761194"/>
      <point x="438.432835821" y="225.0"/>
    </contour>
  </outline>
</glyph>
<glyph name="divide" format="1">
  <advance width="980.992"/>
  <unicode hex="00F7"/>
  <outline>
    <contour>
      <point x="489" y="455" type="qcurve" smooth="yes"/>
      <point x="573.328358209" y="455.0"/>
      <point x="688.0" y="340.328358209"/>
      <point x="688" y="256" type="qcurve" smooth="yes"/>
      <point x="688.0" y="171.671641791"/>
      <point x="573.328358209" y="57.0"/>
      <point x="489" y="57" type="qcurve" smooth="yes"/>
      <point x="405.417910448" y="57.0"/>
      <point x="291.0" y="171.671641791"/>
      <point x="291" y="256" type="qcurve" smooth="yes"/>
      <point x="291.0" y="340.328358209"/>
      <point x="405.417910448" y="455.0"/>
    </contour>
    <contour>
      <point x="489" y="1395" type="qcurve" smooth="yes"/>
      <point x="573.328358209" y="1395.0"/>
      <point x="688.0" y="1280.32835821"/>
      <point x="688" y="1196" type="qcurve" smooth="yes"/>
      <point x="688.0" y="1111.67164179"/>
      <point x="573.328358209" y="997.0"/>
      <point x="489" y="997" type="qcurve" smooth="yes"/>
      <point x="405.417910448" y="997.0"/>
      <point x="291.0" y="1111.67164179"/>
      <point x="291" y="1196" type="qcurve" smooth="yes"/>
      <point x="291.0" y="1280.32835821"/>
      <point x="405.417910448" y="1395.0"/>
    </contour>
    <contour>
      <point x="936" y="879" type="line"/>
      <point x="936" y="573" type="line"/>
      <point x="45" y="573" type="line"/>
      <point x="45" y="879" type="line"/>
    </contour>
  </outline>
</glyph>
<glyph name="lslash" format="1">
  <advance width="749.568"/>
  <unicode hex="0142"/>
  <outline>
    <contour>
      <point x="719" y="1085" type="line"/>
      <point x="719" y="758" type="line"/>
      <point x="575" y="698" type="line"/>
      <point x="575" y="0" type="line"/>
      <point x="174" y="0" type="line"/>
      <point x="174" y="549" type="line"/>
      <point x="31" y="489" type="line"/>
      <point x="31" y="817" type="line"/>
      <point x="174" y="877" type="line"/>
      <point x="174" y="1495" type="line"/>
      <point x="575" y="1544" type="line"/>
      <point x="575" y="1026" type="line"/>
    </contour>
  </outline>
</glyph>
<glyph name="florin" format="1">
  <advance width="946.176"/>
  <unicode hex="0192"/>
  <outline>
    <contour>
      <point x="659" y="1487" type="qcurve" smooth="yes"/>
      <point x="747.805970149" y="1487.0"/>
      <point x="872.746268657" y="1468.68656716"/>
      <point x="922" y="1456" type="qcurve"/>
      <point x="920" y="1184" type="line"/>
      <point x="885.671641791" y="1191.46268657"/>
      <point x="823.791044776" y="1200.0"/>
      <point x="782" y="1200" type="qcurve" smooth="yes"/>
      <point x="729.014925373" y="1200.0"/>
      <point x="672.955223881" y="1141.17910448"/>
      <point x="664" y="1077" type="qcurve" smooth="yes"/>
      <point x="649" y="977" type="line"/>
      <point x="856" y="977" type="line"/>
      <point x="819" y="702" type="line"/>
      <point x="610" y="702" type="line"/>
      <point x="504" y="-27" type="line" smooth="yes"/>
      <point x="474.895522388" y="-222.52238806"/>
      <point x="254.507462687" y="-389.0"/>
      <point x="106" y="-389" type="qcurve" smooth="yes"/>
      <point x="37.3432835821" y="-389.0"/>
      <point x="-67.2089552239" y="-377.955223881"/>
      <point x="-109" y="-369" type="qcurve"/>
      <point x="-70" y="-98" type="line"/>
      <point x="-49.8507462687" y="-100.985074627"/>
      <point x="-7.37313432836" y="-104.0"/>
      <point x="18" y="-104" type="qcurve" smooth="yes"/>
      <point x="71.7313432836" y="-104.0"/>
      <point x="128.044776119" y="-54.1791044776"/>
      <point x="137" y="10" type="qcurve" smooth="yes"/>
      <point x="240" y="702" type="line"/>
      <point x="88" y="702" type="line"/>
      <point x="125" y="977" type="line"/>
      <point x="279" y="977" type="line"/>
      <point x="299" y="1124" type="line" smooth="yes"/>
      <point x="326.611940299" y="1319.52238806"/>
      <point x="511.23880597" y="1487.0"/>
    </contour>
  </outline>
</glyph>
<glyph name="breve" format="1">
  <advance width="819.2"/>
  <unicode hex="02D8"/>
  <outline>
    <contour>
      <point x="561" y="1475" type="qcurve"/>
      <point x="696" y="1475" type="line"/>
      <point x="693.014925373" y="1339.92537313"/>
      <point x="560.746268657" y="1186.0"/>
      <point x="410" y="1186" type="qcurve" smooth="yes"/>
      <point x="258.507462687" y="1186.0"/>
      <point x="125.985074627" y="1339.92537313"/>
      <point x="123" y="1475" type="qcurve"/>
      <point x="258" y="1475" type="line"/>
      <point x="268.447761194" y="1421.26865672"/>
      <point x="345.820895522" y="1366.0"/>
      <point x="410" y="1366" type="qcurve" smooth="yes"/>
      <point x="474.179104478" y="1366.0"/>
      <point x="550.552238806" y="1421.26865672"/>
    </contour>
  </outline>
</glyph>
<glyph name="hungarumlaut" format="1">
  <advance width="819.2"/>
  <unicode hex="02DD"/>
  <outline>
    <contour>
      <point x="109" y="1475" type="line"/>
      <point x="465" y="1475" type="line"/>
      <point x="201" y="1192" type="line"/>
      <point x="-8" y="1192" type="line"/>
    </contour>
    <contour>
      <point x="489" y="1475" type="line"/>
      <point x="846" y="1475" type="line"/>
      <point x="584" y="1192" type="line"/>
      <point x="373" y="1192" type="line"/>
    </contour>
  </outline>
</glyph>
<glyph name="endash" format="1">
  <advance width="833.536"/>
  <unicode hex="2013"/>
  <outline>
    <contour>
      <point x="784" y="750" type="line"/>
      <point x="784" y="451" type="line"/>
      <point x="49" y="451" type="line"/>
      <point x="49" y="750" type="line"/>
    </contour>
  </outline>
</glyph>
<glyph name="emdash" format="1">
  <advance width="1669.12"/>
  <unicode hex="2014"/>
  <outline>
    <contour>
      <point x="1620" y="750" type="line"/>
      <point x="1620" y="451" type="line"/>
      <point x="49" y="451" type="line"/>
      <point x="49" y="750" type="line"/>
    </contour>
  </outline>
</glyph>
<glyph name="quoteright" format="1">
  <advance width="487.424"/>
  <unicode hex="2019"/>
  <unicode hex="02BC"/>
  <outline>
    <contour>
      <point x="94" y="1475" type="line"/>
      <point x="457" y="1475" type="line"/>
      <point x="219" y="879" type="line"/>
      <point x="49" y="879" type="line"/>
    </contour>
  </outline>
</glyph>
<glyph name="quotedblleft" format="1">
  <advance width="901.12"/>
  <unicode hex="201C"/>
  <outline>
    <contour>
      <point x="383" y="1475" type="line"/>
      <point x="428" y="879" type="line"/>
      <point x="268" y="879" type="line"/>
      <point x="31" y="1475" type="line"/>
    </contour>
    <contour>
      <point x="807" y="1475" type="line"/>
      <point x="852" y="879" type="line"/>
      <point x="692" y="879" type="line"/>
      <point x="455" y="1475" type="line"/>
    </contour>
  </outline>
</glyph>
<glyph name="guilsinglright" format="1">
  <advance width="518.144"/>
  <unicode hex="203A"/>
  <outline>
    <contour>
      <point x="225" y="977" type="line"/>
      <point x="502" y="555" type="line"/>
      <point x="225" y="133" type="line"/>
      <point x="41" y="133" type="line"/>
      <point x="154" y="555" type="line"/>
      <point x="41" y="977" type="line"/>
    </contour>
  </outline>
</glyph>
<glyph name="macron" format="1">
  <advance width="819.2"/>
  <outline>
    <contour>
      <point x="670" y="1444" type="line"/>
      <point x="670" y="1245" type="line"/>
      <point x="150" y="1245" type="line"/>
      <point x="150" y="1444" type="line"/>
    </contour>
  </outline>
</glyph>
